<svg xmlns="http://www.w3.org/2000/svg"><style>:root svg:not(:target){display:none}</style><svg fill="none" viewBox="0 0 40 40" id="checkbox"><path stroke="#CDCDCD" d="M.5.5h39v39H.5z"/><path fill="#68B738" d="M17 26.5l-7.6-8.6L8 19.48l9 10.19L32 12.7 30.6 11 17 26.5z"/></svg><svg fill="none" viewBox="0 0 30 30" id="checkbox-mobile"><path stroke="#CDCDCD" d="M.5.5h29v29H.5z"/><path fill="#68B738" d="M13 19.72l-5.7-6.45-1.05 1.19L13 22.09 24.25 9.37 23.2 8.09 13 19.72z"/></svg><svg fill="none" viewBox="0 0 26 30" id="icon_eat"><path fill-rule="evenodd" clip-rule="evenodd" d="M19.117.076a1 1 0 011.09.217c.909.908 2.097 2.878 3.059 5.918C24.237 9.28 25 13.508 25 19a1 1 0 01-1 1h-3.5v9a1 1 0 11-2 0V1a1 1 0 01.617-.924zM20.5 18h2.491c-.086-4.816-.786-8.512-1.632-11.186-.278-.88-.57-1.643-.859-2.295V18zM6.5 0a1 1 0 011 1v28a1 1 0 11-2 0V1a1 1 0 011-1z" fill="#fff"/><path fill-rule="evenodd" clip-rule="evenodd" d="M2 0a1 1 0 011 1v5.5c0 .557.192 1.315.7 1.917.48.566 1.314 1.083 2.8 1.083a1 1 0 110 2c-2.015 0-3.43-.733-4.326-1.792A5.068 5.068 0 011 6.5V1a1 1 0 011-1z" fill="#fff"/><path fill-rule="evenodd" clip-rule="evenodd" d="M11 0a1 1 0 00-1 1v5.5a3.07 3.07 0 01-.7 1.917C8.82 8.983 7.984 9.5 6.5 9.5a1 1 0 000 2c2.014 0 3.43-.733 4.326-1.792A5.068 5.068 0 0012 6.5V1a1 1 0 00-1-1z" fill="#fff"/></svg><svg fill="none" viewBox="0 0 27 31" id="icon-clock"><path d="M6.12 0c-1.066 0-1.066 1.583 0 1.583h6.668v1.604C5.96 3.62.563 9.414.563 16.485c0 4.01 1.75 7.63 4.512 10.069.48.422.544 1.171.107 1.636L3.646 29.74c-.747.686.362 1.752 1.034 1.003l2.006-2.037a1.164 1.164 0 011.312-.211 12.785 12.785 0 0011.105.063c.427-.211.96-.127 1.301.211l1.942 1.974c.683.633 1.664-.317 1.046-1.003l-1.451-1.477c-.448-.454-.384-1.203.106-1.636a13.467 13.467 0 003.415-4.583 13.335 13.335 0 001.194-5.57c0-7.071-5.43-12.876-12.268-13.288V1.583h6.667c1.067 0 1.067-1.583 0-1.583H6.121zM2.004 16.475c0-6.533 5.195-11.82 11.606-11.82 6.4 0 11.596 5.287 11.596 11.82 0 6.543-5.195 11.841-11.596 11.841-6.4 0-11.606-5.298-11.606-11.841zM12.799 8.38c0-1.098 1.664-1.098 1.664 0v8.633a.84.84 0 01-.25.597.858.858 0 01-.604.247.816.816 0 01-.57-.23.798.798 0 01-.24-.561V8.38zm-4.993 2.617c.308 0 .604-.12.822-.337a1.144 1.144 0 000-1.627 1.17 1.17 0 00-.822-.336c-.288.027-.555.16-.75.371a1.144 1.144 0 000 1.547c.195.212.462.344.75.372v.01zm11.596 0c.308 0 .604-.12.822-.337a1.144 1.144 0 000-1.627 1.17 1.17 0 00-.822-.336c-.288.027-.555.16-.75.371a1.144 1.144 0 000 1.547c.195.212.462.344.75.372v.01zM8.969 23.588c0 1.53-2.326 1.53-2.326 0s2.326-1.53 2.326 0zm4.64 3.44a1.176 1.176 0 00.893-.293 1.153 1.153 0 00.381-.851 1.14 1.14 0 00-.38-.852 1.167 1.167 0 00-.894-.293c-.287.027-.555.16-.75.371a1.143 1.143 0 000 1.547c.195.212.463.344.75.372zM5.491 16.645a1.139 1.139 0 01-.297.883 1.162 1.162 0 01-.86.377 1.173 1.173 0 01-.86-.377 1.148 1.148 0 01-.298-.883c.028-.285.162-.55.376-.742a1.17 1.17 0 011.564 0c.214.193.348.457.375.742zm17.388 1.15a1.173 1.173 0 00.894-.294 1.152 1.152 0 00.38-.851 1.14 1.14 0 00-.38-.852 1.164 1.164 0 00-.894-.293c-.287.027-.555.16-.749.371a1.144 1.144 0 000 1.547c.195.212.462.345.75.372zm-2.314 5.805c0 1.52-2.326 1.52-2.326-.01 0-1.531 2.326-1.531 2.326 0v.01z" fill="#fff"/></svg><svg fill="none" viewBox="0 0 78 81" id="icon-gift"><path fill="#fff" d="M64.02 35.63H14.03a3.18 3.18 0 01-3.18-3.16V23a3.18 3.18 0 013.18-3.16h49.98A3.17 3.17 0 0167.2 23v9.47a3.17 3.17 0 01-3.18 3.16zM14.03 22.26c-.4 0-.74.34-.74.74v9.47c0 .4.33.74.74.74h49.98c.41 0 .75-.33.75-.74V23c0-.4-.34-.74-.75-.74H14.03z"/><path fill="#fff" d="M57.04 68.08H21A6.11 6.11 0 0114.87 62V34.42c0-.67.55-1.21 1.22-1.21.68 0 1.22.54 1.22 1.21V62A3.68 3.68 0 0021 65.66h36.04a3.68 3.68 0 003.7-3.67V34.42a1.22 1.22 0 012.44 0V62a6.11 6.11 0 01-6.14 6.1z"/><path fill="#fff" d="M39.02 68.08c-.67 0-1.22-.54-1.22-1.2V34.41c0-.67.55-1.21 1.22-1.21.68 0 1.22.54 1.22 1.21v32.45c0 .67-.54 1.21-1.22 1.21zM23.81 22.26a7.81 7.81 0 01-3.17-10.6A7.9 7.9 0 0131.3 8.5c5.82 3.13 8.96 11.86 9.09 12.23l-2.3.8c-.03-.08-2.96-8.22-7.95-10.9a5.45 5.45 0 00-7.36 2.17 5.4 5.4 0 002.2 7.33l-1.17 2.13z"/><path fill="#fff" d="M54.23 22.26l-1.16-2.14a5.38 5.38 0 00-1.03-9.92 5.42 5.42 0 00-4.14.43c-4.98 2.68-7.91 10.82-7.94 10.9l-2.3-.8c.13-.37 3.27-9.1 9.08-12.23a7.86 7.86 0 0111.29 9.1c-.6 2-1.95 3.66-3.8 4.66zm7.72 29.6H16.09c-.67 0-1.22-.55-1.22-1.21 0-.67.55-1.22 1.22-1.22h45.86a1.21 1.21 0 110 2.42z"/></svg><svg fill="none" viewBox="0 0 24 24" id="icon-header-button"><path stroke="#000" stroke-width="2" d="M0 3h24M0 11h24M0 19h24"/></svg><svg fill="none" viewBox="0 0 20 20" id="icon-header-close"><path stroke="#000" stroke-width="1.5" d="M1.456 19.487l17-18.002M1.545 1.485l17 18.002"/></svg><svg fill="none" viewBox="0 0 27 34" id="icon-html"><g clip-path="url(#a)"><path fill="#666" d="M13.64.02L13.5 0 0 1.4v24.61L13.5 34 27 26.01V1.41L13.64 0zm11.6 25L13.5 31.96 1.77 25.02v-10.1l11.68 6.93.02 1.25-8.02-4.75v1.23l8.04 4.8.02 1.3-8.05-4.76v1.22l8.04 4.81 8.12-4.83V16.9l3.62-2.15v10.26zm0-11.57L22 15.33l-1.48.88-7.06-4.19-.01 1.23 6.04 3.57-.06.03-.13.07-.86.5-4.98-2.95-.01 1.22 3.93 2.33-.93.61-.02.01-2.97-1.74-.01 1.23 1.94 1.13-1.98 1.19L1.8 13.58l11.63-6.96 11.8 6.83zm0-1.22L13.43 5.3 1.77 12.22V2.99L13.5 1.76 25.23 3v9.24z"/></g><defs><clipPath id="a"><path fill="#fff" d="M0 0h27v34H0z"/></clipPath></defs></svg><svg fill="none" viewBox="0 0 25 28" id="icon-leaf"><path d="M24.844.767c-.1-.45-.48-.767-.912-.767h-.005C18.989.033 6.982.916 2.134 8.38c-2.518 3.878-2.735 8.913-.644 14.965.016.047.048.079.07.122C.813 25.44.523 26.753.516 26.79c-.11.54.214 1.072.72 1.188a.88.88 0 00.197.022c.433 0 .822-.321.916-.79.02-.102 2.409-10.373 10.854-16.378.431-.306.547-.927.26-1.387-.288-.46-.87-.585-1.3-.277-4.79 3.405-7.739 8.008-9.473 11.656-1.242-4.578-.916-8.377.986-11.305 3.743-5.764 12.622-7.154 17.982-7.448C20.505 3.872 19.245 7.174 19.245 13c0 3.12-.83 5.522-2.465 7.14-2.62 2.591-6.88 2.834-9.993 2.584-.518-.045-.967.371-1.006.922-.04.55.347 1.03.863 1.072.623.051 1.29.082 1.981.082 3.17 0 6.87-.663 9.43-3.194 2.034-2.011 3.065-4.906 3.065-8.605 0-9.099 3.216-11.096 3.232-11.105.39-.209.594-.677.492-1.129z" fill="#fff"/></svg><svg fill="none" viewBox="0 0 19 14" id="mail"><path stroke="#000" stroke-linecap="round" stroke-linejoin="round" d="M.5 5.5v8h17v-8M.5.5h17v2L9 8.5l-8.5-6v-2z"/></svg><svg fill="none" viewBox="0 0 21 20" id="phone"><path stroke="#000" stroke-linecap="round" stroke-linejoin="round" d="M10 10h8.5m0 0L16 7.5m2.5 2.5L16 12.5m-7.5-10v5h-3v5h3v5H6c-1.5 0-2.5-1-2.5-2.5V5c0-1.5 1-2.5 2.5-2.5h2.5z"/></svg><svg fill="none" viewBox="0 0 28 22" id="tg-icon"><path fill="#666" fill-rule="evenodd" d="M23.46 3.15c.18.15.27.38.23.61l-2.63 15.76a.66.66 0 01-1.01.44l-7.88-5.25a.66.66 0 01-.15-.96l2.61-3.26-4.36 2.9a.66.66 0 01-.65.05L4.36 10.8a.66.66 0 01.08-1.2l18.38-6.57a.66.66 0 01.64.11zM6.33 10.32l3.53 1.77 7.56-5.04a.66.66 0 01.88.96l-4.8 6 6.43 4.3 2.28-13.66-15.88 5.67z" clip-rule="evenodd"/></svg><svg fill="none" viewBox="0 0 28 22" id="vk-icon"><path fill="#666" d="M1 5.34c0-.86.52-1.32 1.55-1.38l3.97.02c.26 0 .44.13.53.38.4 1.26.86 2.34 1.37 3.25.5.92 1.17 1.97 1.99 3.16.07.15.18.23.34.23.13 0 .22-.06.3-.18l.07-.28.03-4.35c0-.3-.07-.5-.23-.6-.15-.1-.43-.18-.83-.23-.32-.05-.48-.23-.48-.55 0-.07 0-.12.02-.15.38-1.09 1.44-1.63 3.2-1.63l1.5-.03c.67 0 1.23.16 1.67.48.44.32.67.82.67 1.5v5.72c.12.08.24.12.34.12.27 0 .5-.15.7-.45 1.95-2.58 3-4.31 3.17-5.18 0-.02.01-.06.05-.13.12-.25.33-.47.61-.65.29-.19.53-.31.75-.38a.55.55 0 01.24-.05h4.13l.26.03c.36 0 .63.16.83.47.07.1.12.21.15.33a2.4 2.4 0 01.06.55v.18a6.11 6.11 0 01-.94 2.2c-.5.78-1.15 1.62-1.93 2.53-.79.9-1.27 1.5-1.47 1.78-.16.2-.24.39-.24.56 0 .13.07.28.21.45l3.9 4.63c.2.26.31.56.31.88 0 .38-.16.7-.48.95-.32.25-.7.4-1.14.43l-.46.02h-4.04c-.02 0-.06 0-.11.02a.86.86 0 01-.1.01c-.4 0-.76-.16-1.1-.48-.12-.13-.96-1.12-2.5-2.97a1.39 1.39 0 00-.38-.32 38.47 38.47 0 00-.53 2.24l-.08.42a1.4 1.4 0 01-1.12 1.06l-.37.02h-2.61c-1.48 0-2.95-.63-4.41-1.9a19.3 19.3 0 01-3.96-4.95 47.51 47.51 0 01-3.28-7.05A1.92 1.92 0 011 5.34zm16.01 6.51c-.37 0-.7-.1-1.01-.29a.9.9 0 01-.45-.79V5c0-.34-.1-.58-.27-.72-.18-.14-.49-.21-.93-.21l-1.52.05c-.76 0-1.34.12-1.73.37.78.36 1.17.93 1.17 1.71v4.43a1.5 1.5 0 01-.53 1.04c-.32.28-.68.42-1.07.42-.53 0-.94-.24-1.22-.73a26.16 26.16 0 01-3.1-5.63l-.23-.66-3.55-.02c-.23 0-.36.01-.38.03-.03.03-.04.1-.04.22 0 .15.01.3.05.48l.56 1.4c1.49 3.64 3.11 6.51 4.86 8.6 1.75 2.1 3.47 3.15 5.16 3.15h2.66c.1 0 .19-.03.24-.09.05-.06.1-.17.13-.34l.06-.25.5-2.21c.15-.3.27-.5.38-.6.2-.2.42-.28.69-.28.43 0 .86.24 1.3.73l2.27 2.71c.14.22.3.33.45.33h4.4c.53 0 .8-.13.8-.38a.47.47 0 00-.08-.25l-3.87-4.55c-.3-.35-.45-.73-.45-1.13 0-.4.14-.8.43-1.16.23-.34.68-.9 1.34-1.67.67-.78 1.25-1.51 1.75-2.19.5-.68.82-1.3.98-1.85l.08-.33a.37.37 0 01-.02-.16c0-.07-.01-.14-.03-.19h-4.18c-.27.1-.48.25-.64.45L21.8 6c-.45 1.16-1.6 2.94-3.5 5.36-.36.33-.8.5-1.3.5z"/></svg><svg fill="none" viewBox="0 0 28 22" id="yt-icon"><path fill="#666" d="M17.85 10.8l-5.24-3.5a.65.65 0 00-1.01.55v6.98a.65.65 0 001.01.54l5.24-3.49a.65.65 0 000-1.09zm-4.94 2.8V9.08l3.4 2.27-3.4 2.27zm12.48-8.56a2.4 2.4 0 00-1.45-1.63C20.22 1.98 14.25 2 14 2s-6.22-.02-9.94 1.4a2.4 2.4 0 00-1.45 1.64 25.32 25.32 0 00-.61 6.3c0 3.26.33 5.22.61 6.3a2.4 2.4 0 001.45 1.63c3.72 1.43 9.69 1.4 9.94 1.4h.08c.75 0 6.31-.04 9.86-1.4a2.4 2.4 0 001.45-1.64c.28-1.07.61-3.03.61-6.3 0-3.25-.33-5.22-.61-6.29zm-1.27 12.27a1.1 1.1 0 01-.65.74c-3.5 1.34-9.4 1.32-9.47 1.32-.07 0-5.98.02-9.47-1.32a1.09 1.09 0 01-.65-.74c-.27-1-.57-2.85-.57-5.97 0-3.12.3-4.97.57-5.97a1.1 1.1 0 01.65-.74C8.03 3.29 13.93 3.3 14 3.3c.07 0 5.98-.02 9.47 1.32a1.1 1.1 0 01.65.74c.27 1 .57 2.85.57 5.97 0 3.12-.3 4.96-.57 5.97z"/></svg><svg xmlns="http://www.w3.org/2000/svg" fill="none" viewBox="0 0 40 40" id="icon-thumb"><rect width="38" height="38" x="1" y="1" fill="#fff" rx="19"/><path fill="#666" d="M16 11l-8 9 8 9V11zm16 9l-8-9v18l8-9z"/><rect width="38" height="38" x="1" y="1" stroke="#666" stroke-width="2" rx="19"/></svg></svg>