<svg xmlns="http://www.w3.org/2000/svg">
<style>:root svg:not(:target) { display: none }</style>

  <svg  fill="none" viewBox="0 0 40 40" id="checkbox">
    <path stroke="#CDCDCD" d="M.5.5h39v39H.5z"></path>
    <path fill="#68B738" d="m17 26.5-7.6-8.6L8 19.48l9 10.19L32 12.7 30.6 11 17 26.5Z"></path>
  </svg>
  <svg  fill="none" viewBox="0 0 30 30" id="checkbox-mobile">
    <path stroke="#CDCDCD" d="M.5.5h29v29H.5z"></path>
    <path fill="#68B738" d="m13 19.72-5.7-6.45-1.05 1.19L13 22.09 24.25 9.37 23.2 8.09 13 19.72Z"></path>
  </svg>
  <svg fill="none"  viewBox="0 0 26 30" id="icon_eat">
    <path fill-rule="evenodd" clip-rule="evenodd" d="M19.1173 0.0761497C19.491 -0.0786313 19.9211 0.00692445 20.2071 0.292922C21.1156 1.20142 22.3038 3.17065 23.2659 6.21082C24.2373 9.28039 25 13.5081 25 19C25 19.5523 24.5523 20 24 20H20.5V29C20.5 29.5523 20.0523 30 19.5 30C18.9477 30 18.5 29.5523 18.5 29V1.00003C18.5 0.595567 18.7436 0.230931 19.1173 0.0761497ZM20.5 18H22.9912C22.9053 13.1836 22.2051 9.48755 21.3591 6.81424C21.0807 5.93457 20.7885 5.1715 20.5 4.51895V18Z" fill="white"></path>
    <path fill-rule="evenodd" clip-rule="evenodd" d="M6.5 0C7.05228 0 7.5 0.447715 7.5 1V29C7.5 29.5523 7.05228 30 6.5 30C5.94772 30 5.5 29.5523 5.5 29V1C5.5 0.447715 5.94772 0 6.5 0Z" fill="white"></path>
    <path fill-rule="evenodd" clip-rule="evenodd" d="M2 0C2.55228 0 3 0.447715 3 1V6.5C3 7.05686 3.19203 7.81518 3.70088 8.41656C4.18001 8.98281 5.01446 9.5 6.49993 9.5C7.05221 9.5 7.49993 9.94771 7.49993 10.5C7.49993 11.0523 7.05221 11.5 6.49993 11.5C4.48547 11.5 3.06995 10.7672 2.1741 9.70844C1.30797 8.68482 1 7.44314 1 6.5V1C1 0.447715 1.44772 0 2 0Z" fill="white"></path>
    <path fill-rule="evenodd" clip-rule="evenodd" d="M11 0C10.4477 0 10 0.447715 10 1V6.5C10 7.05686 9.80797 7.81518 9.29912 8.41656C8.81999 8.98281 7.9854 9.5 6.49993 9.5C5.94765 9.5 5.50007 9.94771 5.50007 10.5C5.50007 11.0523 5.94765 11.5 6.49993 11.5C8.51439 11.5 9.93005 10.7672 10.8259 9.70844C11.692 8.68482 12 7.44314 12 6.5V1C12 0.447715 11.5523 0 11 0Z" fill="white"></path>
  </svg>
  <svg fill="none"  viewBox="0 0 27 31" id="icon-clock">
    <path d="M6.12057 0C5.0538 0 5.0538 1.5831 6.12057 1.5831H12.7878V3.18731C5.96055 3.62002 0.562721 9.41417 0.562721 16.4854C0.562721 20.4959 2.31222 24.1159 5.07514 26.5539C5.55518 26.976 5.61919 27.7254 5.18181 28.1897L3.64567 29.7412C2.89894 30.4272 4.00837 31.4931 4.68043 30.7438L6.68595 28.7069C7.03798 28.3692 7.5607 28.2847 7.99807 28.4958C9.7228 29.3397 11.6191 29.784 13.5432 29.795C15.4673 29.8059 17.3687 29.3833 19.1031 28.5591C19.5298 28.348 20.0632 28.4325 20.4045 28.7702L22.3461 30.7438C23.0288 31.377 24.0102 30.4272 23.3915 29.7412L21.9407 28.2636C21.4926 27.8098 21.5567 27.0605 22.0474 26.6277C23.5031 25.3585 24.6674 23.7959 25.4623 22.0447C26.2571 20.2936 26.6641 18.3944 26.6558 16.4748C26.6558 9.40361 21.226 3.59891 14.388 3.18731V1.5831H21.0553C22.122 1.5831 22.122 0 21.0553 0H6.12057ZM2.00285 16.4748C2.00285 9.94187 7.198 4.65431 13.6093 4.65431C20.0098 4.65431 25.205 9.94187 25.205 16.4748C25.205 23.0183 20.0098 28.3164 13.6093 28.3164C7.20867 28.3164 2.00285 23.0183 2.00285 16.4748V16.4748ZM12.7985 8.37988C12.7985 7.28226 14.4627 7.28226 14.4627 8.37988V17.013C14.4627 17.237 14.3728 17.4517 14.2127 17.6101C14.0527 17.7684 13.8356 17.8574 13.6093 17.8574C13.3961 17.8574 13.1915 17.7743 13.0397 17.6262C12.888 17.478 12.8013 17.2767 12.7985 17.0658V8.37988V8.37988ZM7.80605 10.9973C8.11444 10.9973 8.4102 10.8761 8.62826 10.6603C8.84632 10.4446 8.96883 10.152 8.96883 9.84688C8.96883 9.54178 8.84632 9.24918 8.62826 9.03344C8.4102 8.8177 8.11444 8.6965 7.80605 8.6965C7.51825 8.72386 7.25108 8.85633 7.05666 9.06805C6.86224 9.27977 6.75453 9.55556 6.75453 9.84161C6.75453 10.1277 6.86224 10.4034 7.05666 10.6152C7.25108 10.8269 7.51825 10.9593 7.80605 10.9867V10.9973ZM19.4018 10.9973C19.7102 10.9973 20.0059 10.8761 20.224 10.6603C20.4421 10.4446 20.5646 10.152 20.5646 9.84688C20.5646 9.54178 20.4421 9.24918 20.224 9.03344C20.0059 8.8177 19.7102 8.6965 19.4018 8.6965C19.114 8.72386 18.8468 8.85633 18.6524 9.06805C18.458 9.27977 18.3503 9.55556 18.3503 9.84161C18.3503 10.1277 18.458 10.4034 18.6524 10.6152C18.8468 10.8269 19.114 10.9593 19.4018 10.9867V10.9973ZM8.96883 23.5882C8.96883 25.1185 6.64328 25.1185 6.64328 23.5882C6.64328 22.0579 8.96883 22.0579 8.96883 23.5882ZM13.6093 27.0288C13.7706 27.0441 13.9334 27.0259 14.0872 26.9754C14.241 26.9248 14.3824 26.843 14.5024 26.7352C14.6223 26.6273 14.7182 26.4959 14.7838 26.3493C14.8494 26.2026 14.8833 26.044 14.8833 25.8837C14.8833 25.7233 14.8494 25.5648 14.7838 25.4181C14.7182 25.2715 14.6223 25.14 14.5024 25.0322C14.3824 24.9244 14.241 24.8426 14.0872 24.792C13.9334 24.7414 13.7706 24.7232 13.6093 24.7386C13.3215 24.7659 13.0543 24.8984 12.8599 25.1101C12.6654 25.3219 12.5577 25.5976 12.5577 25.8837C12.5577 26.1697 12.6654 26.4455 12.8599 26.6572C13.0543 26.869 13.3215 27.0014 13.6093 27.0288V27.0288ZM5.49117 16.6437C5.50668 16.8033 5.48829 16.9643 5.43717 17.1165C5.38606 17.2687 5.30336 17.4086 5.19437 17.5273C5.08539 17.646 4.95252 17.7408 4.80431 17.8057C4.6561 17.8706 4.49581 17.9041 4.33373 17.9041C4.17166 17.9041 4.01137 17.8706 3.86316 17.8057C3.71495 17.7408 3.58208 17.646 3.4731 17.5273C3.36411 17.4086 3.28141 17.2687 3.23029 17.1165C3.17918 16.9643 3.16079 16.8033 3.17629 16.6437C3.20396 16.3589 3.33785 16.0946 3.55185 15.9022C3.76585 15.7099 4.04461 15.6033 4.33373 15.6033C4.62286 15.6033 4.90162 15.7099 5.11562 15.9022C5.32962 16.0946 5.46351 16.3589 5.49117 16.6437V16.6437ZM22.8794 17.794C23.0408 17.8094 23.2036 17.7912 23.3574 17.7406C23.5112 17.6901 23.6526 17.6082 23.7726 17.5004C23.8925 17.3926 23.9884 17.2611 24.054 17.1145C24.1196 16.9679 24.1535 16.8093 24.1535 16.6489C24.1535 16.4886 24.1196 16.33 24.054 16.1834C23.9884 16.0367 23.8925 15.9053 23.7726 15.7975C23.6526 15.6896 23.5112 15.6078 23.3574 15.5573C23.2036 15.5067 23.0408 15.4885 22.8794 15.5038C22.5916 15.5312 22.3245 15.6637 22.13 15.8754C21.9356 16.0871 21.8279 16.3629 21.8279 16.6489C21.8279 16.935 21.9356 17.2108 22.13 17.4225C22.3245 17.6342 22.5916 17.7667 22.8794 17.794V17.794ZM20.5646 23.5987C20.5646 25.1185 18.239 25.1185 18.239 23.5882C18.239 22.0579 20.5646 22.0579 20.5646 23.5882V23.5987Z" fill="white"></path>
  </svg>
  <svg  fill="none" viewBox="0 0 78 81" id="icon-gift">
    <path fill="#fff" d="M64.02 35.63H14.03a3.18 3.18 0 0 1-3.18-3.16V23a3.18 3.18 0 0 1 3.18-3.16h49.98A3.17 3.17 0 0 1 67.2 23v9.47a3.17 3.17 0 0 1-3.18 3.16ZM14.03 22.26c-.4 0-.74.34-.74.74v9.47c0 .4.33.74.74.74h49.98c.41 0 .75-.33.75-.74V23c0-.4-.34-.74-.75-.74H14.03Z"></path>
    <path fill="#fff" d="M57.04 68.08H21A6.11 6.11 0 0 1 14.87 62V34.42c0-.67.55-1.21 1.22-1.21.68 0 1.22.54 1.22 1.21V62A3.68 3.68 0 0 0 21 65.66h36.04a3.68 3.68 0 0 0 3.7-3.67V34.42a1.22 1.22 0 0 1 2.44 0V62a6.11 6.11 0 0 1-6.14 6.1Z"></path>
    <path fill="#fff" d="M39.02 68.08c-.67 0-1.22-.54-1.22-1.2V34.41c0-.67.55-1.21 1.22-1.21.68 0 1.22.54 1.22 1.21v32.45c0 .67-.54 1.21-1.22 1.21ZM23.81 22.26a7.81 7.81 0 0 1-3.17-10.6A7.9 7.9 0 0 1 31.3 8.5c5.82 3.13 8.96 11.86 9.09 12.23l-2.3.8c-.03-.08-2.96-8.22-7.95-10.9a5.45 5.45 0 0 0-7.36 2.17 5.4 5.4 0 0 0 2.2 7.33l-1.17 2.13Z"></path>
    <path fill="#fff" d="m54.23 22.26-1.16-2.14a5.38 5.38 0 0 0-1.03-9.92 5.42 5.42 0 0 0-4.14.43c-4.98 2.68-7.91 10.82-7.94 10.9l-2.3-.8c.13-.37 3.27-9.1 9.08-12.23a7.86 7.86 0 0 1 11.29 9.1c-.6 2-1.95 3.66-3.8 4.66ZM61.95 51.86H16.09c-.67 0-1.22-.55-1.22-1.21 0-.67.55-1.22 1.22-1.22h45.86a1.21 1.21 0 1 1 0 2.42Z"></path>
  </svg>
  <svg  fill="none" viewBox="0 0 24 24" id="icon-header-button">
    <path stroke="#000" stroke-width="2" d="M0 3h24M0 11h24M0 19h24"></path>
  </svg>
  <svg  fill="none" viewBox="0 0 20 20" id="icon-header-close">
    <path stroke="#000" stroke-width="1.5" d="M0-.75h24.76" transform="rotate(-46.64 24.2 7.68)"></path>
    <path stroke="#000" stroke-width="1.5" d="M0-.75h24.76" transform="rotate(46.64 -1.82 2.16)"></path>
  </svg>
  <svg  fill="none" viewBox="0 0 27 34" id="icon-html">
    <g clip-path="url(#a)">
      <path fill="#666" d="M13.64.02 13.5 0 0 1.4v24.61L13.5 34 27 26.01V1.41L13.64 0Zm11.6 25L13.5 31.96 1.77 25.02v-10.1l11.68 6.93.02 1.25-8.02-4.75v1.23l8.04 4.8.02 1.3-8.05-4.76v1.22l8.04 4.81 8.12-4.83V16.9l3.62-2.15v10.26Zm0-11.57L22 15.33l-1.48.88-7.06-4.19-.01 1.23 6.04 3.57-.06.03-.13.07-.86.5-4.98-2.95-.01 1.22 3.93 2.33-.93.61-.02.01-2.97-1.74-.01 1.23 1.94 1.13-1.98 1.19L1.8 13.58l11.63-6.96 11.8 6.83Zm0-1.22L13.43 5.3 1.77 12.22V2.99L13.5 1.76 25.23 3v9.24Z"></path>
    </g>
    <defs>
      <clipPath id="a">
        <path fill="#fff" d="M0 0h27v34H0z"></path>
      </clipPath>
    </defs>
  </svg>
  <svg fill="none"  viewBox="0 0 25 28" id="icon-leaf">
    <path d="M24.8438 0.767C24.7434 0.317 24.3647 0 23.9325 0C23.9306 0 23.9288 0 23.9269 0C18.9891 0.033 6.98156 0.916 2.13375 8.38C-0.384376 12.258 -0.600938 17.293 1.48969 23.345C1.50562 23.392 1.53844 23.424 1.56 23.467C0.812812 25.44 0.523125 26.753 0.515624 26.79C0.406875 27.33 0.730312 27.862 1.23656 27.978C1.30219 27.993 1.36781 28 1.43344 28C1.86562 28 2.25469 27.679 2.34937 27.21C2.36906 27.108 4.75781 16.837 13.2028 10.832C13.6341 10.526 13.7503 9.905 13.4625 9.445C13.1747 8.985 12.5934 8.86 12.1622 9.168C7.37344 12.573 4.42406 17.176 2.68969 20.824C1.44844 16.246 1.77375 12.447 3.67594 9.519C7.41937 3.755 16.2984 2.365 21.6581 2.071C20.505 3.872 19.245 7.174 19.245 13C19.245 16.12 18.4153 18.522 16.7803 20.14C14.1591 22.731 9.90094 22.974 6.78656 22.724C6.26906 22.679 5.82 23.095 5.78062 23.646C5.74125 24.196 6.12844 24.676 6.64406 24.718C7.2675 24.769 7.93313 24.8 8.625 24.8C11.7956 24.8 15.4941 24.137 18.0544 21.606C20.0888 19.595 21.12 16.7 21.12 13.001C21.12 3.902 24.3356 1.905 24.3516 1.896C24.7416 1.687 24.9459 1.219 24.8438 0.767Z" fill="white"></path>
  </svg>
  <svg  fill="none" viewBox="0 0 19 14" id="mail">
    <path stroke="#000" stroke-linecap="round" stroke-linejoin="round" d="M.5 5.5v8h17v-8M.5.5h17v2L9 8.5l-8.5-6v-2Z"></path>
  </svg>
  <svg  fill="none" viewBox="0 0 21 20" id="phone">
    <path stroke="#000" stroke-linecap="round" stroke-linejoin="round" d="M10 10h8.5m0 0L16 7.5m2.5 2.5L16 12.5m-7.5-10v5h-3v5h3v5H6c-1.5 0-2.5-1-2.5-2.5V5c0-1.5 1-2.5 2.5-2.5h2.5Z"></path>
  </svg>
  <svg  fill="none" viewBox="0 0 28 22" id="tg-icon">
    <path fill="#666" fill-rule="evenodd" d="M23.46 3.15c.18.15.27.38.23.61l-2.63 15.76a.66.66 0 0 1-1.01.44l-7.88-5.25a.66.66 0 0 1-.15-.96l2.61-3.26-4.36 2.9a.66.66 0 0 1-.65.05L4.36 10.8a.66.66 0 0 1 .08-1.2l18.38-6.57a.66.66 0 0 1 .64.11ZM6.33 10.32l3.53 1.77 7.56-5.04a.66.66 0 0 1 .88.96l-4.8 6 6.43 4.3 2.28-13.66-15.88 5.67Z" clip-rule="evenodd"></path>
  </svg>
  <svg  fill="none" viewBox="0 0 28 22" id="vk-icon">
    <path fill="#666" d="M1 5.34c0-.86.52-1.32 1.55-1.38l3.97.02c.26 0 .44.13.53.38.4 1.26.86 2.34 1.37 3.25.5.92 1.17 1.97 1.99 3.16.07.15.18.23.34.23.13 0 .22-.06.3-.18l.07-.28.03-4.35c0-.3-.07-.5-.23-.6-.15-.1-.43-.18-.83-.23-.32-.05-.48-.23-.48-.55 0-.07 0-.12.02-.15.38-1.09 1.44-1.63 3.2-1.63l1.5-.03c.67 0 1.23.16 1.67.48.44.32.67.82.67 1.5v5.72c.12.08.24.12.34.12.27 0 .5-.15.7-.45 1.95-2.58 3-4.31 3.17-5.18 0-.02.01-.06.05-.13.12-.25.33-.47.61-.65.29-.19.53-.31.75-.38a.55.55 0 0 1 .24-.05h4.13l.26.03c.36 0 .63.16.83.47.07.1.12.21.15.33a2.4 2.4 0 0 1 .06.55v.18a6.11 6.11 0 0 1-.94 2.2c-.5.78-1.15 1.62-1.93 2.53-.79.9-1.27 1.5-1.47 1.78-.16.2-.24.39-.24.56 0 .13.07.28.21.45l3.9 4.63c.2.26.31.56.31.88 0 .38-.16.7-.48.95-.32.25-.7.4-1.14.43l-.46.02h-4.04c-.02 0-.06 0-.11.02a.86.86 0 0 1-.1.01c-.4 0-.76-.16-1.1-.48-.12-.13-.96-1.12-2.5-2.97a1.39 1.39 0 0 0-.38-.32 38.47 38.47 0 0 0-.53 2.24l-.08.42a1.4 1.4 0 0 1-1.12 1.06l-.37.02h-2.61c-1.48 0-2.95-.63-4.41-1.9a19.3 19.3 0 0 1-3.96-4.95 47.51 47.51 0 0 1-3.28-7.05A1.92 1.92 0 0 1 1 5.34Zm16.01 6.51c-.37 0-.7-.1-1.01-.29a.9.9 0 0 1-.45-.79V5c0-.34-.1-.58-.27-.72-.18-.14-.49-.21-.93-.21l-1.52.05c-.76 0-1.34.12-1.73.37.78.36 1.17.93 1.17 1.71v4.43a1.5 1.5 0 0 1-.53 1.04c-.32.28-.68.42-1.07.42-.53 0-.94-.24-1.22-.73a26.16 26.16 0 0 1-3.1-5.63l-.23-.66-3.55-.02c-.23 0-.36.01-.38.03-.03.03-.04.1-.04.22 0 .15.01.3.05.48l.56 1.4c1.49 3.64 3.11 6.51 4.86 8.6 1.75 2.1 3.47 3.15 5.16 3.15h2.66c.1 0 .19-.03.24-.09.05-.06.1-.17.13-.34l.06-.25.5-2.21c.15-.3.27-.5.38-.6.2-.2.42-.28.69-.28.43 0 .86.24 1.3.73l2.27 2.71c.14.22.3.33.45.33h4.4c.53 0 .8-.13.8-.38a.47.47 0 0 0-.08-.25l-3.87-4.55c-.3-.35-.45-.73-.45-1.13 0-.4.14-.8.43-1.16.23-.34.68-.9 1.34-1.67.67-.78 1.25-1.51 1.75-2.19.5-.68.82-1.3.98-1.85l.08-.33a.37.37 0 0 1-.02-.16c0-.07-.01-.14-.03-.19h-4.18c-.27.1-.48.25-.64.45L21.8 6c-.45 1.16-1.6 2.94-3.5 5.36-.36.33-.8.5-1.3.5Z"></path>
  </svg>
  <svg  fill="none" viewBox="0 0 28 22" id="yt-icon">
    <path fill="#666" d="m17.85 10.8-5.24-3.5a.65.65 0 0 0-1.01.55v6.98a.65.65 0 0 0 1.01.54l5.24-3.49a.65.65 0 0 0 0-1.09Zm-4.94 2.8V9.08l3.4 2.27-3.4 2.27Zm12.48-8.56a2.4 2.4 0 0 0-1.45-1.63C20.22 1.98 14.25 2 14 2s-6.22-.02-9.94 1.4a2.4 2.4 0 0 0-1.45 1.64 25.32 25.32 0 0 0-.61 6.3c0 3.26.33 5.22.61 6.3a2.4 2.4 0 0 0 1.45 1.63c3.72 1.43 9.69 1.4 9.94 1.4h.08c.75 0 6.31-.04 9.86-1.4a2.4 2.4 0 0 0 1.45-1.64c.28-1.07.61-3.03.61-6.3 0-3.25-.33-5.22-.61-6.29Zm-1.27 12.27a1.1 1.1 0 0 1-.65.74c-3.5 1.34-9.4 1.32-9.47 1.32-.07 0-5.98.02-9.47-1.32a1.09 1.09 0 0 1-.65-.74c-.27-1-.57-2.85-.57-5.97 0-3.12.3-4.97.57-5.97a1.1 1.1 0 0 1 .65-.74C8.03 3.29 13.93 3.3 14 3.3c.07 0 5.98-.02 9.47 1.32a1.1 1.1 0 0 1 .65.74c.27 1 .57 2.85.57 5.97 0 3.12-.3 4.96-.57 5.97Z"></path>
  </svg>
   <svg xmlns="http://www.w3.org/2000/svg" fill="none" viewBox="0 0 40 40" id="icon-thumb">
    <rect width="38" height="38" x="1" y="1" fill="#fff" rx="19"></rect>
    <path fill="#666" d="m16 11-8 9 8 9V11ZM32 20l-8-9v18l8-9Z"></path>
    <rect width="38" height="38" x="1" y="1" stroke="#666" stroke-width="2" rx="19"></rect>
  </svg>
</svg>
